<svg width="7" height="10" viewBox="0 0 7 10" fill="none" xmlns="http://www.w3.org/2000/svg">
<path d="M0.292894 8.29289C-0.0976305 8.68342 -0.0976305 9.31658 0.292894 9.70711C0.683418 10.0976 1.31658 10.0976 1.70711 9.70711L0.292894 8.29289ZM5 5L5.70711 5.70711L6.41421 5L5.70711 4.29289L5 5ZM1.70711 0.292894C1.31658 -0.0976311 0.683417 -0.0976311 0.292893 0.292894C-0.0976312 0.683418 -0.0976312 1.31658 0.292893 1.70711L1.70711 0.292894ZM1.70711 9.70711L5.70711 5.70711L4.29289 4.29289L0.292894 8.29289L1.70711 9.70711ZM5.70711 4.29289L1.70711 0.292894L0.292893 1.70711L4.29289 5.70711L5.70711 4.29289Z" fill="#6A4D67"/>
</svg>
