<svg width="22" height="24" viewBox="0 0 22 24" fill="none" xmlns="http://www.w3.org/2000/svg">
<path d="M21.4829 20.054L20.4528 6.51298C20.3115 5.35826 19.082 4.76843 17.919 4.76843H14.1641V3.47248C14.1724 1.58671 12.5774 0 10.6999 0C8.82243 0 7.22741 1.58671 7.22741 3.47248V4.77674H3.18172C2.027 4.77674 1.15472 5.64071 1.0135 6.80374L0 20.0955C0 21.109 0.290758 22.1225 1.0135 22.8453C1.59502 23.568 2.60021 24 3.61371 24H17.6366C18.6501 24 19.7217 23.6511 20.3697 22.9699C21.3167 21.9149 21.6324 21.0675 21.4829 20.054ZM8.6729 3.47248C8.6729 2.31776 9.53686 1.44548 10.6999 1.44548C11.8629 1.44548 12.7269 2.30945 12.7269 3.47248V4.77674H8.6812L8.6729 3.47248ZM19.3728 21.8318C18.9408 22.2638 18.3593 22.5545 17.7861 22.5545H3.76324C3.18172 22.5545 2.60852 22.2638 2.17653 21.8318C1.74455 21.3998 1.59502 20.8183 1.59502 20.2451L2.60851 6.93666C2.60851 6.50467 2.89927 6.21391 3.33126 6.21391H7.23572V7.95016C7.23572 8.38214 7.52648 8.6729 7.95846 8.6729C8.39045 8.6729 8.6812 8.38214 8.6812 7.95016V6.21391H12.7269V7.95016C12.7269 8.38214 13.0177 8.6729 13.4496 8.6729C13.7404 8.6729 14.1724 8.38214 14.1724 7.95016V6.21391H18.2181C18.6501 6.21391 18.9408 6.50467 18.9408 6.93666L19.9543 20.2368C19.9543 20.8183 19.8048 21.3915 19.3728 21.8318Z" fill="#436B67"/>
</svg>
