<svg width="22" height="22" viewBox="0 0 22 22" fill="none" xmlns="http://www.w3.org/2000/svg">
<path d="M17.5001 17.4166H9.25558C8.06667 17.4166 7.0125 16.6365 6.69075 15.5191L3.90408 6.07654C3.80508 5.73463 3.476 5.49996 3.10017 5.49996H0.916667C0.40975 5.49996 0 5.08929 0 4.58329C0 4.07729 0.40975 3.66663 0.916667 3.66663H3.10017C4.28908 3.66663 5.34233 4.44671 5.66408 5.56413L6.18567 7.33329H20.2061C20.7781 7.33329 21.3207 7.60554 21.6572 8.06204C21.9908 8.51488 22.0871 9.08138 21.9212 9.61671L20.0301 15.619C19.6597 16.7025 18.645 17.4166 17.5001 17.4166ZM20.207 9.16663H20.2162H20.207Z" fill="#A4B0BE"/>
<path d="M10.0833 22C9.07225 22 8.25 21.1778 8.25 20.1667C8.25 19.1556 9.07225 18.3334 10.0833 18.3334C11.0944 18.3334 11.9167 19.1556 11.9167 20.1667C11.9167 21.1778 11.0944 22 10.0833 22ZM10.0833 20.1658V20.1667V20.1658Z" fill="#A4B0BE"/>
<path d="M16.5 22C15.4889 22 14.6667 21.1778 14.6667 20.1667C14.6667 19.1556 15.4889 18.3334 16.5 18.3334C17.5111 18.3334 18.3333 19.1556 18.3333 20.1667C18.3333 21.1778 17.5111 22 16.5 22ZM16.5 20.1658V20.1667V20.1658Z" fill="#A4B0BE"/>
</svg>
