<svg width="11" height="18" viewBox="0 0 11 18" fill="none" xmlns="http://www.w3.org/2000/svg">
<path d="M7.82609 3.52174H9.78261C9.99861 3.52174 10.1739 3.34643 10.1739 3.13043V0.494217C10.1739 0.289174 10.0162 0.118565 9.81196 0.104087C9.18939 0.0598696 7.97322 0 7.09865 0C4.69565 0 3.13043 1.44 3.13043 4.05704V6.65217H0.391304C0.175304 6.65217 0 6.82748 0 7.04348V9.78261C0 9.99861 0.175304 10.1739 0.391304 10.1739H3.13043V17.6087C3.13043 17.8247 3.30574 18 3.52174 18H6.26087C6.47687 18 6.65217 17.8247 6.65217 17.6087V10.1739H9.47817C9.67774 10.1739 9.84522 10.024 9.86713 9.82565L10.1716 7.08652C10.1974 6.85487 10.0158 6.65217 9.78261 6.65217H6.65217V4.69565C6.65217 4.04726 7.1777 3.52174 7.82609 3.52174Z" fill="#A4B0BE"/>
</svg>
