<svg width="18" height="18" viewBox="0 0 18 18" fill="none" xmlns="http://www.w3.org/2000/svg">
<path d="M5.31818 0C2.385 0 0 2.385 0 5.31818V12.6818C0 15.615 2.385 18 5.31818 18H12.6818C15.615 18 18 15.615 18 12.6818V5.31818C18 2.385 15.615 0 12.6818 0H5.31818ZM13.9091 3.27273C14.3591 3.27273 14.7273 3.64091 14.7273 4.09091C14.7273 4.54091 14.3591 4.90909 13.9091 4.90909C13.4591 4.90909 13.0909 4.54091 13.0909 4.09091C13.0909 3.64091 13.4591 3.27273 13.9091 3.27273ZM9 4.5C11.4832 4.5 13.5 6.51682 13.5 9C13.5 11.4832 11.4832 13.5 9 13.5C6.51682 13.5 4.5 11.4832 4.5 9C4.5 6.51682 6.51682 4.5 9 4.5ZM9 5.31818C6.97091 5.31818 5.31818 6.97091 5.31818 9C5.31818 11.0291 6.97091 12.6818 9 12.6818C11.0291 12.6818 12.6818 11.0291 12.6818 9C12.6818 6.97091 11.0291 5.31818 9 5.31818Z" fill="#A4B0BE"/>
</svg>
