<svg width="17" height="17" viewBox="0 0 17 17" fill="none" xmlns="http://www.w3.org/2000/svg">
<path d="M5.43182 1C2.98835 1 1 2.98835 1 5.43182V11.5682C1 14.0117 2.98835 16 5.43182 16H11.5682C14.0117 16 16 14.0117 16 11.5682V5.43182C16 2.98835 14.0117 1 11.5682 1H5.43182ZM5.43182 1.68182H11.5682C13.6431 1.68182 15.3182 3.35688 15.3182 5.43182V11.5682C15.3182 13.6431 13.6431 15.3182 11.5682 15.3182H5.43182C3.35688 15.3182 1.68182 13.6431 1.68182 11.5682V5.43182C1.68182 3.35688 3.35688 1.68182 5.43182 1.68182ZM12.5909 3.72727C12.4101 3.72727 12.2367 3.79911 12.1088 3.92697C11.9809 4.05484 11.9091 4.22826 11.9091 4.40909C11.9091 4.58992 11.9809 4.76334 12.1088 4.89121C12.2367 5.01907 12.4101 5.09091 12.5909 5.09091C12.7717 5.09091 12.9452 5.01907 13.073 4.89121C13.2009 4.76334 13.2727 4.58992 13.2727 4.40909C13.2727 4.22826 13.2009 4.05484 13.073 3.92697C12.9452 3.79911 12.7717 3.72727 12.5909 3.72727ZM8.5 4.75C6.43297 4.75 4.75 6.43297 4.75 8.5C4.75 10.567 6.43297 12.25 8.5 12.25C10.567 12.25 12.25 10.567 12.25 8.5C12.25 6.43297 10.567 4.75 8.5 4.75ZM8.5 5.43182C10.1985 5.43182 11.5682 6.80145 11.5682 8.5C11.5682 10.1985 10.1985 11.5682 8.5 11.5682C6.80145 11.5682 5.43182 10.1985 5.43182 8.5C5.43182 6.80145 6.80145 5.43182 8.5 5.43182Z" fill="#436B67" stroke="#436B67" stroke-width="0.6"/>
</svg>
