<svg width="75" height="89" viewBox="0 0 75 89" fill="none" xmlns="http://www.w3.org/2000/svg">
<path d="M25.2086 14.0127C25.2086 17.8333 25.2086 17.8011 29.0647 17.8677C31.5371 17.9085 34.0159 17.9601 36.4731 18.2029C38.715 18.4174 40.8112 19.3999 42.4004 20.9813C51.1072 29.5621 59.7974 38.1573 68.471 46.7668C69.9696 48.2516 71.3901 49.8224 72.9689 51.2191C75.1269 53.1251 75.2418 57.6913 72.9689 59.8766C64.9706 67.5507 57.0994 75.3508 49.3555 83.277C47.0024 85.688 42.7517 86.1585 40.2077 83.4296C39.1537 82.2993 38.1973 82.2757 36.8679 82.7849C32.4393 84.4889 27.976 86.1091 23.5213 87.7401C22.6235 88.0667 21.7104 88.4427 20.7735 88.5588C17.5399 88.9563 15.4861 87.6219 14.3345 84.5534C9.87769 72.6791 5.44259 60.7942 0.925072 48.9457C-0.302444 45.7225 -0.345818 42.682 1.0205 39.491C3.15022 34.5122 5.12378 29.469 7.05614 24.4107C7.36817 23.4825 7.40877 22.4858 7.17326 21.5357C5.94791 16.4623 5.7332 11.4213 7.54411 6.45755C8.03763 5.09047 8.77192 3.82094 9.71287 2.70791C13.339 -1.4801 20.2747 -0.670003 22.9987 4.16909C24.5363 6.90021 25.2043 9.87199 25.2086 14.0127ZM11.1117 19.3482C11.7949 19.0108 12.2612 18.6842 12.7795 18.5402C14.1241 18.1706 15.4861 17.6958 16.8546 17.6463C17.451 17.6248 18.5202 18.4822 18.5896 19.0388C18.6763 19.7285 18.0062 20.5558 17.5508 21.2499C17.4076 21.4647 16.9001 21.4647 16.5596 21.5357C12.6385 22.451 10.2399 25.3261 10.331 29.2993C10.4633 34.9549 10.7018 40.6062 10.9621 46.2576C11.0212 47.8273 11.6976 49.3118 12.8467 50.394C17.8457 55.2825 22.7883 60.2312 27.7504 65.1584C32.8513 70.2224 37.9537 75.2871 43.0575 80.3525C44.3587 81.6418 45.0527 81.6418 46.3648 80.3525C54.1724 72.6383 61.9755 64.9148 69.7744 57.182C71.0019 55.9637 70.9629 55.2051 69.757 54.0104C59.7085 44.0558 49.6642 34.0997 39.6243 24.1421C38.4966 22.9639 36.9541 22.2613 35.3172 22.1803C32.2809 22.0299 29.2555 21.9654 26.2279 21.8043C25.0438 21.7398 24.6317 22.2662 24.2305 23.332C23.2555 25.948 22.1362 28.5089 20.8776 31.0033C20.1663 32.4086 18.9257 32.6535 17.8414 31.9895C16.8676 31.3836 16.6247 29.9697 17.4358 28.7664C20.8039 23.8241 21.4675 18.2373 21.1227 12.5064C20.9947 10.4199 20.3094 8.24965 19.3877 6.35441C17.965 3.39767 14.675 3.24295 12.5973 5.78928C10.9881 7.75758 10.5392 10.1427 10.3787 12.5365C10.229 14.739 10.0208 17.021 11.1182 19.3482H11.1117ZM6.49227 38.3844L6.08237 38.3178C5.59802 39.4036 5.11439 40.488 4.63148 41.571C4.25944 42.3631 4.05661 43.2228 4.03571 44.0962C4.01481 44.9696 4.1763 45.8378 4.51003 46.6465C9.09044 58.7399 13.5798 70.8656 18.106 82.9783C18.711 84.5985 19.3313 84.8886 21.0186 84.2826C25.2 82.7785 29.3748 81.2536 33.5432 79.7079C34.1472 79.4484 34.7366 79.1564 35.3085 78.8333C35.1799 78.6131 35.0349 78.4026 34.8748 78.2037C27.3383 70.7173 19.854 63.1793 12.2351 55.7789C9.18153 52.8114 6.59637 49.8353 6.89349 45.1939C7.03879 42.942 6.64625 40.6556 6.49878 38.3844H6.49227Z" fill="#6A4D67"/>
<path d="M33.2374 60.9252C32.5282 60.9252 31.819 60.9037 31.112 60.9252C29.6481 60.9746 28.5312 60.4074 27.9239 59.0773C27.3449 57.8073 27.4186 56.5374 28.2623 55.3749C29.0278 54.3198 29.7804 53.2497 30.6088 52.2419C31.4373 51.2341 31.6932 50.1834 31.1098 48.9177C30.6169 47.8183 30.2137 46.6816 29.904 45.5184C29.0256 42.3618 31.2616 40.1077 34.4584 40.9414C35.8225 41.296 37.1238 41.9385 38.5009 42.1942C39.3486 42.3208 40.215 42.1778 40.9755 41.7859C42.1661 41.1412 43.205 40.2366 44.311 39.4416C45.5516 38.5498 46.9135 38.2683 48.3059 38.9538C49.7329 39.6543 50.2296 40.9264 50.1428 42.4606C50.1081 43.0601 50.2035 43.679 50.0973 44.2635C49.6006 47.0032 50.7219 48.8533 53.1704 50.0652C53.8461 50.4088 54.4823 50.8238 55.0681 51.3029C57.213 53.0112 56.7901 56.301 54.2461 57.3195C52.7041 57.9405 51.0429 58.2672 49.5074 58.8968C48.8563 59.2035 48.3366 59.7299 48.0413 60.3816C47.4904 61.6709 47.1586 63.0418 46.7531 64.3848C46.2716 65.9813 45.2349 67.0106 43.552 67.1782C42.0057 67.3286 40.828 66.6152 39.9952 65.326C39.6938 64.8618 39.3229 64.4385 39.0627 63.955C37.8091 61.63 36.1457 60.1108 33.2374 60.9252ZM51.5265 53.9352C50.2252 53.0048 49.31 52.1882 48.256 51.6403C46.4798 50.7163 45.9094 49.3454 46.0981 47.448C46.2195 46.2317 46.1219 44.9962 46.1219 43.2836C44.8467 44.1925 43.8686 44.7126 43.1182 45.4603C41.457 47.1106 39.6786 47.2546 37.6204 46.3198C36.6597 45.8901 35.6013 45.6473 34.1895 45.1917C34.8162 47.0913 35.2608 48.5589 35.7857 49.9986C36.1869 51.0902 36.0546 52.0013 35.2977 52.921C34.3348 54.0963 33.4868 55.3598 32.3026 56.9779C34.0376 56.9779 35.2955 57.0896 36.5209 56.9521C38.4858 56.7372 39.774 57.4936 40.7369 59.1546C41.3355 60.1903 42.1444 61.1036 43.038 62.3155C43.6344 60.4589 44.1332 58.9977 44.5713 57.5194C44.9009 56.402 45.6058 55.7509 46.727 55.435C48.2191 55.0074 49.6896 54.5111 51.5265 53.9352Z" fill="#6A4D67"/>
</svg>
