<svg width="16" height="16" viewBox="0 0 16 16" fill="none" xmlns="http://www.w3.org/2000/svg">
<path d="M15.5 11.6899V13.9399C15.5009 14.1488 15.4581 14.3556 15.3744 14.547C15.2907 14.7383 15.168 14.9101 15.0141 15.0513C14.8601 15.1926 14.6784 15.3001 14.4806 15.367C14.2827 15.4339 14.073 15.4587 13.865 15.4399C11.5571 15.1892 9.34025 14.4006 7.3925 13.1374C5.58037 11.9859 4.04401 10.4496 2.8925 8.63745C1.62499 6.68085 0.836185 4.4532 0.590003 2.13495C0.571261 1.92755 0.595909 1.71852 0.662379 1.52117C0.728848 1.32382 0.835681 1.14247 0.976078 0.988666C1.11647 0.834865 1.28736 0.711983 1.47785 0.627842C1.66834 0.543702 1.87426 0.500147 2.0825 0.499951H4.3325C4.69648 0.496368 5.04935 0.62526 5.32532 0.8626C5.6013 1.09994 5.78156 1.42954 5.8325 1.78995C5.92747 2.51 6.10359 3.217 6.3575 3.89745C6.45841 4.16589 6.48025 4.45764 6.42043 4.73811C6.36062 5.01858 6.22165 5.27603 6.02 5.47995L5.0675 6.43245C6.13517 8.31011 7.68984 9.86478 9.5675 10.9324L10.52 9.97995C10.7239 9.7783 10.9814 9.63934 11.2618 9.57952C11.5423 9.5197 11.8341 9.54154 12.1025 9.64245C12.783 9.89636 13.49 10.0725 14.21 10.1674C14.5743 10.2188 14.9071 10.4024 15.1449 10.6831C15.3828 10.9638 15.5091 11.3221 15.5 11.6899Z" fill="#A4B0BE" stroke="#A4B0BE" stroke-width="0.5" stroke-linecap="round" stroke-linejoin="round"/>
</svg>
