<svg width="42" height="42" viewBox="0 0 42 42" fill="none" xmlns="http://www.w3.org/2000/svg">
<path d="M32.1562 42H9.84375C4.41591 42 0 37.5835 0 32.1548V18.3493C0 15.2981 1.44826 12.3717 3.87401 10.5212L15.0303 2.01094C18.5452 -0.670313 23.4548 -0.670313 26.9697 2.01094L30.5156 4.71344V2.61929C30.6022 0.442192 33.711 0.443833 33.7969 2.61929V8.02683C33.7969 8.65061 33.4432 9.2204 32.8843 9.49729C32.3253 9.77411 31.6578 9.70995 31.1618 9.33198L24.9803 4.62081C22.6365 2.83293 19.3633 2.83293 17.0201 4.6204L5.86384 13.1307C4.24676 14.3642 3.28125 16.3151 3.28125 18.3493V32.1548C3.28125 35.7739 6.22519 38.7183 9.84375 38.7183H32.1562C35.7748 38.7183 38.7188 35.7739 38.7188 32.1548V18.3493C38.7188 16.2901 37.7642 14.3326 36.1652 13.1128C35.4447 12.5632 35.3062 11.5335 35.8557 10.813C36.4052 10.0924 37.4348 9.95387 38.1551 10.5035C40.5626 12.3399 42 15.273 42 18.3493V32.1548C42 37.5835 37.5841 42 32.1562 42ZM17.7188 18.9459C16.5861 18.9459 15.668 19.8642 15.668 20.997C15.7763 23.7183 19.6622 23.7163 19.7695 20.997C19.7695 19.8641 18.8514 18.9459 17.7188 18.9459ZM26.332 20.9969C26.2237 23.7182 22.3378 23.7162 22.2305 20.9969C22.3388 18.2755 26.2247 18.2776 26.332 20.9969ZM19.7695 27.5603C19.6612 30.2817 15.7753 30.2796 15.668 27.5603C15.7763 24.839 19.6622 24.8411 19.7695 27.5603ZM26.332 27.5603C26.2237 30.2817 22.3378 30.2796 22.2305 27.5603C22.3388 24.839 26.2247 24.8411 26.332 27.5603Z" fill="#4B6584"/>
</svg>
