<svg width="93" height="89" viewBox="0 0 93 89" fill="none" xmlns="http://www.w3.org/2000/svg">
<path d="M14.8337 80.9051C15.6093 76.2992 16.3758 71.691 17.1671 67.0873C17.645 64.3229 18.1447 61.5599 18.6662 58.7984C18.8923 57.6201 18.6074 56.7486 17.6849 55.8727C12.6654 51.1099 7.73631 46.262 2.73939 41.4702C0.320067 39.147 -0.672534 36.4027 0.478341 33.2238C1.57043 30.2219 3.88574 28.6672 7.12809 28.2393C14.0017 27.3432 20.8527 26.2656 27.7195 25.3135C29.0535 25.1298 29.7318 24.3995 30.2812 23.2749C33.3171 17.0784 36.3778 10.8991 39.4634 4.73693C41.8081 0.0705111 47.0786 -1.19074 51.2208 1.98592C52.1818 2.7252 52.9121 3.88564 53.4819 4.99008C56.5509 11.0417 59.5656 17.121 62.5261 23.2279C63.1818 24.572 64.0794 25.1567 65.5649 25.3561C72.6013 26.2992 79.6332 27.2872 86.6469 28.3894C89.4258 28.8262 91.4132 30.549 92.3606 33.1701C93.4075 36.06 92.8128 38.7707 90.606 40.9437C85.5669 45.917 80.4758 50.8456 75.3326 55.7293C74.2021 56.7979 74.0077 57.8463 74.2632 59.2487C75.4593 65.8507 76.6418 72.4661 77.7474 79.0748C78.6089 84.2274 76.0245 87.749 71.0095 88.3651C68.5224 88.6698 66.5168 87.3592 64.4638 86.2929C59.1006 83.503 53.7494 80.6878 48.4103 77.8472C47.0537 77.1258 45.8938 77.0743 44.5168 77.8091C38.412 81.0798 32.2845 84.3372 26.1051 87.478C20.1336 90.4889 14.4471 85.6544 14.8337 80.9051ZM46.4116 4.86239C44.9419 4.76157 44.1505 5.70696 43.5988 6.81812C40.2977 13.3686 37.0214 19.9302 33.77 26.5031C33.0035 28.0713 32.2009 29.178 30.1863 29.4356C22.709 30.3944 15.2633 31.5728 7.80188 32.6548C6.38194 32.8609 5.2288 33.4389 4.74268 34.8458C4.25655 36.2526 4.94844 37.31 5.90486 38.233C11.302 43.4685 16.6697 48.7353 22.1369 53.9013C23.3285 55.0214 23.7084 56.1079 23.4257 57.6895C22.1234 64.9412 20.9499 72.213 19.6362 79.4624C19.3558 81.0126 19.3852 82.3209 20.7464 83.2977C22.1437 84.2991 23.4596 83.7457 24.7914 83.0423C31.3665 79.5834 37.962 76.1648 44.5417 72.7126C45.6948 72.1077 46.7846 71.9061 48.0079 72.5647C51.0309 74.1978 54.0833 75.7772 57.1289 77.37C61.0112 79.3862 64.8572 81.5055 68.8163 83.3739C69.7004 83.7905 71.1339 83.6494 72.0677 83.2282C73.3271 82.6592 73.5916 81.3375 73.309 79.9418C72.9088 77.948 72.6013 75.9363 72.2553 73.9312C71.2944 68.3508 70.2724 62.7793 69.4426 57.181C69.3024 56.2625 69.7162 54.9183 70.3764 54.2463C75.8323 48.8383 81.4103 43.5491 86.9431 38.2151C87.9041 37.2876 88.5756 36.1989 88.0917 34.8256C87.6079 33.4523 86.4548 32.8452 85.028 32.6414C77.51 31.5571 70.0011 30.4011 62.4741 29.393C60.9456 29.1892 60.0389 28.4969 59.4171 27.2289C58.3522 25.0492 57.2985 22.865 56.2155 20.6964C53.9258 16.1054 51.624 11.5211 49.3102 6.94357C48.7178 5.78312 47.9536 4.77054 46.4116 4.86239Z" fill="#6A4D67"/>
<path d="M46.4501 65.4475C44.6638 65.4475 43.6758 64.6432 43.7911 63.0594C43.9222 61.2313 43.0834 60.6847 41.4871 60.4517C40.5044 60.2754 39.552 59.9616 38.6585 59.5198C37.1979 58.8477 36.7366 57.7276 37.2295 56.4305C37.7405 55.0684 38.9547 54.4792 40.4673 54.8623C41.7539 55.1939 43.0359 55.5344 44.3111 55.8771C44.4729 55.9174 44.6378 55.9444 44.804 55.9578C47.203 56.1661 49.143 55.102 49.7987 53.2135C50.3572 51.6028 49.5183 49.9831 47.2618 48.7442C45.3715 47.7047 43.3524 46.9005 41.4441 45.8902C38.4098 44.2861 36.8474 41.6875 37.1029 38.3137C37.3584 34.9399 39.2645 32.5585 42.4548 31.3689C43.7413 30.8873 44.1167 30.1928 44.0782 28.9158C44.0285 27.1841 45.0233 26.0775 46.4003 26.0707C47.7773 26.064 48.7654 27.1573 48.7383 28.8867C48.7224 30.0449 49.1249 30.5826 50.2758 30.7775C51.2095 30.935 52.117 31.2184 52.9732 31.6198C54.1783 32.1888 54.6079 33.2642 54.2326 34.5164C53.8573 35.7687 52.9189 36.4453 51.5691 36.2392C50.3097 36.0488 49.0819 35.585 47.8248 35.4932C46.7877 35.396 45.742 35.5355 44.7678 35.9009C42.5068 36.8485 42.1337 39.1605 44.0895 40.6054C45.5773 41.7031 47.3748 42.3976 49.0638 43.2175C52.0213 44.658 54.7165 46.3068 55.535 49.824C56.514 54.0155 54.7753 57.909 50.8297 59.6811C49.2108 60.4092 48.1504 61.1216 48.3652 63.1467C48.5099 64.4797 47.6643 65.4318 46.4501 65.4475Z" fill="#6A4D67"/>
</svg>
