<svg width="73" height="89" viewBox="0 0 73 89" fill="none" xmlns="http://www.w3.org/2000/svg">
<path d="M27.6572 0.110138C29.3784 0.499833 31.1159 0.833284 32.821 1.29128C35.116 1.90595 37.3623 1.97224 39.6614 1.26717C41.0768 0.842889 42.5243 0.531875 43.9899 0.337125C48.0021 -0.221304 50.6803 2.02246 52.8151 4.91303C54.6398 7.39181 56.9044 9.06308 59.8218 10.0032C60.9349 10.3627 61.9911 10.9252 63.0292 11.4756C65.5979 12.8395 66.8265 15.0913 67.1225 17.8754C67.2766 19.3317 67.1894 20.8283 67.4874 22.2484C67.8016 23.751 68.3713 25.2133 68.9694 26.6355C69.3242 27.4792 69.9183 28.2425 70.4535 28.9938C73.0891 32.7521 73.1094 36.5346 70.5974 40.3492C70.0865 41.1265 69.5837 41.918 69.0343 42.6612C67.1995 45.1199 67.384 48.0547 67.2096 50.8368C66.942 55.3866 64.4199 57.9437 60.3327 59.3719C59.3575 59.7134 58.4128 60.1433 57.4356 60.4767C56.3469 60.8503 56.2029 61.4429 56.6023 62.4955C58.7311 68.12 60.7808 73.7786 62.8872 79.4151C63.2461 80.3773 63.4955 81.2712 62.6845 82.147C61.8735 83.0228 60.9369 82.846 59.9556 82.5487C58.0661 81.9863 56.1543 81.4961 54.2789 80.8755C52.9712 80.4416 52.1218 80.6264 51.3838 81.918C50.3701 83.6997 49.0685 85.3188 47.9839 87.0664C47.402 88.0004 46.5647 88.4564 45.6463 88.131C44.9062 87.8211 44.3167 87.2384 44.002 86.5059C41.7881 80.7047 39.6938 74.8553 37.5022 69.048C37.2995 68.5016 36.6669 68.1119 36.2351 67.6419C35.8093 68.1139 35.1971 68.5177 34.9882 69.0721C32.9467 74.4696 30.974 79.8932 28.9811 85.3107C28.9142 85.4935 28.8696 85.6864 28.7945 85.8672C28.3587 86.8816 28.1559 88.133 26.7388 88.2776C25.3743 88.4203 24.758 87.3998 24.1234 86.4517C22.9759 84.7443 21.8081 83.0489 20.6769 81.3294C20.2004 80.6003 19.6632 80.4255 18.8076 80.6947C16.693 81.3575 14.5663 81.9963 12.4071 82.4845C11.6306 82.6592 10.3513 82.6733 10.0128 82.2293C9.52618 81.5906 9.36196 80.3552 9.62957 79.5678C11.2109 74.9477 12.9565 70.3698 14.6494 65.7818C15.0894 64.5886 15.509 63.3874 15.9997 62.2143C16.3626 61.3445 16.1436 60.8564 15.2414 60.541C13.9885 60.1031 12.7781 59.5366 11.5272 59.0987C7.14601 57.5219 5.1693 54.2376 5.23012 49.8284C5.27675 46.3191 4.19412 43.3402 2.14037 40.5882C-0.748668 36.7053 -0.697983 32.6477 2.20119 28.9375C4.83681 25.5568 5.16525 21.7221 5.46733 17.771C5.70859 14.8804 7.15412 12.7049 9.70256 11.2988C10.3473 10.9413 11.0082 10.5495 11.7137 10.3768C15.732 9.39251 18.4548 6.76107 20.8857 3.63146C22.538 1.49215 24.7195 0.116164 27.6572 0.110138ZM3.667 34.8613C4.60771 36.5667 5.35582 38.2079 6.36141 39.6823C7.83735 41.8356 8.83483 44.1236 9.06393 46.7128C9.19368 48.1712 9.26667 49.6335 9.38831 51.0939C9.52415 52.7792 10.3067 54.0729 11.8617 54.8261C12.7372 55.2751 13.6429 55.6637 14.5724 55.9892C17.656 56.9936 20.2937 58.5704 22.1974 61.2601C22.8725 62.2123 23.7321 63.0419 24.5309 63.9076C25.575 65.0386 26.8645 65.5146 28.4012 65.1912C29.6055 64.9421 30.8341 64.7493 31.9999 64.3877C34.8788 63.4858 37.7273 63.5581 40.594 64.3877C41.4455 64.6348 42.3112 64.8317 43.1668 65.0647C45.2651 65.6392 47.0614 65.2113 48.4927 63.526C48.8719 63.078 49.3037 62.6683 49.6402 62.1902C51.7893 59.1027 54.6114 56.9373 58.283 55.9048C58.7088 55.7863 59.1102 55.5854 59.5278 55.4368C62.2101 54.4766 63.2765 52.5342 63.2745 49.7701C63.2745 46.0982 64.0429 42.6673 66.2507 39.5417C69.3729 35.1224 69.1661 34.3571 66.2649 29.8153C65.1032 28.0075 64.2882 25.9043 63.6495 23.8353C63.2157 22.4292 63.2968 20.8383 63.2664 19.3297C63.2177 16.9193 62.2101 15.2259 59.8907 14.3441C58.6013 13.8539 57.3362 13.3015 56.061 12.7772C54.0681 11.9597 52.361 10.7866 51.0229 9.0671C50.0472 7.83753 49.0064 6.6601 47.9048 5.53976C46.81 4.40482 45.4719 3.88255 43.8764 4.36665C39.116 5.81094 34.3861 6.32316 29.5508 4.52534C27.0936 3.61137 25.0743 4.52534 23.5274 6.66666C21.1188 9.98911 18.1771 12.6929 14.0392 13.7354C10.4162 14.6574 9.02946 17.1884 9.12475 20.6093C9.22815 24.2953 8.14755 27.4932 5.94985 30.4521C5.01319 31.7096 4.47593 33.2603 3.667 34.8533V34.8613ZM25.9684 81.8658C27.6349 77.3521 29.1372 73.2744 30.5604 69.4116C28.3506 69.1464 26.1731 69.3011 24.3728 68.5559C22.5725 67.8106 21.129 66.1614 19.3043 64.7493C17.7493 69.0239 16.2186 73.2262 14.5521 77.8061C16.6241 77.2175 18.2359 76.8017 19.8233 76.2975C21.1614 75.8717 22.0879 76.2634 22.8381 77.4084C23.7544 78.7924 24.7438 80.1161 25.9724 81.8577L25.9684 81.8658ZM42.0111 69.4116C43.4303 73.3045 44.9184 77.3863 46.5667 81.8999C47.7243 80.2467 48.5941 79.0234 49.4456 77.792C50.6377 76.0665 51.1162 75.8978 53.1476 76.4622C54.6398 76.8761 56.136 77.2657 57.9951 77.774C56.2941 73.186 54.731 68.9797 53.1983 64.8497C51.3737 66.2559 49.9545 67.8628 48.1663 68.5719C46.3782 69.281 44.1926 69.1505 42.0253 69.4035L42.0111 69.4116Z" fill="#6A4D67"/>
<path d="M10.8034 34.6825C10.4689 20.0609 23.0591 8.65935 37.78 9.41062C50.9885 10.0936 63.1103 21.445 61.7823 37.0709C61.2777 43.3075 58.4412 49.1327 53.8286 53.4056C49.216 57.6785 43.1595 60.0913 36.8453 60.1714C19.9571 60.3401 10.0533 46.2509 10.8034 34.6825ZM14.696 34.6584C14.5764 46.5281 24.1011 56.3528 36.4926 56.2222C48.955 56.0937 57.7539 46.281 57.8938 34.9638C58.0357 23.3673 48.6894 13.2513 36.1378 13.3236C23.8011 13.3939 14.5703 23.5019 14.6981 34.6584H14.696Z" fill="#6A4D67"/>
<path d="M40.3081 36.5767C40.3081 33.8007 40.3081 31.0266 40.3081 28.2505C40.3081 26.979 41.0582 26.3221 42.3598 26.3282C44.1804 26.3362 46.001 26.3201 47.8216 26.28C51.0208 26.2056 53.701 28.2746 54.0741 31.1431C54.5181 34.5298 52.9996 37.091 49.9179 37.7318C48.4501 38.0371 46.8768 37.9326 45.3563 37.8965C44.1398 37.8664 43.6472 38.2982 43.7202 39.5135C43.7932 40.6826 43.7202 41.8577 43.7202 43.0288C43.7202 44.0472 43.2559 44.7603 42.226 44.8929C41.0866 45.0375 40.3851 44.3646 40.3446 43.302C40.2614 41.0623 40.3202 38.8185 40.3202 36.5767H40.3081ZM43.7546 32.0912C43.7546 32.726 43.6695 33.3768 43.7891 33.9895C43.854 34.327 44.2615 34.8573 44.519 34.8593C45.9381 34.8593 47.3857 34.8914 48.7664 34.6182C50.07 34.3591 50.6964 33.2523 50.6417 31.9707C50.589 30.7514 49.92 29.8214 48.6467 29.5602C47.9201 29.4343 47.1824 29.3818 46.445 29.4035C43.7404 29.3774 43.7404 29.3774 43.7607 32.0912H43.7546Z" fill="#6A4D67"/>
<path d="M26.2115 38.7823C26.617 37.7056 27.0225 36.6329 27.3996 35.5482C28.3018 32.967 29.1736 30.3757 30.0818 27.7985C30.4589 26.7299 31.1361 25.9906 32.4032 26.3221C33.5142 26.6113 33.94 27.5876 33.4453 28.9334C31.6429 33.8368 29.8264 38.7361 27.8923 43.5972C27.653 44.1998 26.6758 44.8025 26.0108 44.8507C25.4269 44.8868 24.4578 44.248 24.2348 43.6936C22.2845 38.7943 20.4416 33.8508 18.6271 28.8993C18.2419 27.8527 18.4081 26.7761 19.6671 26.3763C20.9261 25.9766 21.5627 26.7519 21.9419 27.8467C23.0083 30.9402 24.0848 34.0303 25.1715 37.117C25.3621 37.6614 25.577 38.1977 25.7898 38.7381L26.2115 38.7823Z" fill="#6A4D67"/>
<path d="M38.1083 35.5302C38.1083 37.9688 38.1083 40.4074 38.1083 42.846C38.1083 43.9569 37.7171 44.8246 36.5026 44.897C35.2294 44.9733 34.5969 44.1437 34.5786 42.9726C34.5584 41.6649 34.751 40.3612 34.7611 39.0435C34.7895 35.484 34.7794 31.9245 34.7611 28.363C34.7611 27.212 35.049 26.2177 36.4033 26.2478C37.6684 26.276 38.1225 27.1638 38.1104 28.361C38.0901 30.7514 38.1083 33.1418 38.1083 35.5302Z" fill="#6A4D67"/>
</svg>
