<svg width="82" height="89" viewBox="0 0 82 89" fill="none" xmlns="http://www.w3.org/2000/svg">
<path d="M12.5743 49.242C14.2534 49.242 15.955 49.0799 17.6034 49.3048C18.6312 49.4811 19.5794 49.9664 20.3194 50.6949C21.6079 51.9877 24.5898 52.5875 26.0275 51.471C27.5202 50.3368 28.9409 49.1126 30.2815 47.8053C31.1895 46.9148 31.9049 45.8505 32.3842 44.6771C32.8635 43.5038 33.0965 42.246 33.0691 40.9805C33.0589 38.9136 33.0527 36.8447 33.0691 34.7758C33.0795 33.9694 33.2573 33.1738 33.5914 32.4385C33.9255 31.7032 34.4088 31.0438 35.0112 30.5015C35.6136 29.9592 36.3222 29.5456 37.0929 29.2863C37.8636 29.0271 38.6799 28.9278 39.491 28.9946C45.422 29.4708 49.6065 33.9409 49.6555 39.8174C49.6699 41.5742 49.6269 43.3412 49.8151 45.0859C49.8601 45.5054 50.7027 46.1335 51.2037 46.1599C53.1753 46.2592 55.1632 46.0626 57.1348 46.1477C63.4748 46.4172 67.5141 51.6047 66.5631 57.8561C65.835 62.6281 65.4955 67.457 64.8594 72.2432C64.3727 75.9191 64.0045 79.6557 63.0045 83.2058C62.0514 86.5797 57.9017 88.7824 54.3554 88.7561C49.7803 88.7216 45.2052 88.902 40.6281 88.9587C37.1779 89.0012 34.0835 87.982 31.6129 85.5483C29.1423 83.1147 26.1298 82.4379 22.7879 82.6993C21.8962 82.7702 21.3563 83.0579 21.0925 84.061C20.573 86.0407 19.3929 86.8148 17.2782 86.8432C14.1736 86.8837 11.069 86.9202 7.96445 86.9364C5.30571 86.9506 3.92112 85.139 3.94975 82.3973C4.01315 76.1582 3.84954 69.9149 3.79432 63.6737C3.76364 60.0425 3.69615 56.4072 3.78 52.778C3.82295 50.8935 5.45092 49.3879 7.37953 49.2947C9.10566 49.2096 10.84 49.2764 12.5723 49.2764L12.5743 49.242ZM21.1927 67.3394H21.295C21.295 70.6667 21.3297 73.994 21.2725 77.3213C21.2561 78.3345 21.6406 78.681 22.6039 78.6303C23.3667 78.5898 24.1316 78.6303 24.8945 78.6303C28.3713 78.5776 31.4698 79.6861 33.8933 82.0954C36.143 84.3366 38.8713 84.9323 41.8143 84.9323C45.8781 84.9424 49.9439 84.7722 54.0097 84.6952C57.2943 84.6304 59.7362 82.3082 59.9551 79.0214C60.041 77.7671 60.1596 76.5148 60.3109 75.2666C61.0636 68.924 61.8612 62.5876 62.577 56.239C62.9104 53.2886 60.2025 50.2835 57.2064 50.2167C54.6621 50.1599 52.1159 50.1782 49.5717 50.2167C49.0563 50.2268 48.3793 50.3767 48.0623 50.7192C45.7554 53.2096 43.972 55.8702 44.0517 59.54C44.1335 63.0679 42.3706 65.9149 39.6362 68.1115C38.5297 69.0031 37.2065 68.8369 36.5173 67.9271C35.828 67.0172 35.9794 65.7528 37.0756 64.849C39.2333 63.0679 40.1086 60.77 40.0963 58.0526C40.0567 55.0909 41.1649 52.2269 43.1928 50.0505C44.9087 48.17 45.7104 46.0869 45.602 43.5905C45.5488 42.3746 45.602 41.171 45.5897 39.9592C45.5941 38.5635 45.1666 37.1999 44.3646 36.0524C43.5626 34.9049 42.4248 34.0287 41.1046 33.5417C38.3968 32.5285 37.1063 33.3857 37.0756 36.2185C37.049 38.6867 37.2392 41.1872 36.9038 43.6148C36.3087 47.935 33.3677 50.7699 30.1731 53.5054C27.9602 55.4001 25.6451 56.312 22.8104 55.9837C21.4606 55.8277 21.1579 56.4518 21.1743 57.6413C21.2254 60.8855 21.1927 64.1135 21.1927 67.3415V67.3394ZM17.176 68.0872C17.176 63.7001 17.1473 59.315 17.1964 54.93C17.2087 53.7284 16.8651 53.1772 15.5603 53.2258C13.5294 53.3028 11.4903 53.2907 9.45539 53.2258C8.19556 53.1873 7.72721 53.7061 7.74357 54.9219C7.86492 63.7879 7.9665 72.6532 8.0483 81.5179C8.0483 82.4784 8.42053 82.8877 9.40221 82.8735C11.384 82.8411 13.3719 82.8006 15.3537 82.8897C16.7342 82.9526 17.2312 82.4845 17.2066 81.0863C17.131 76.7499 17.178 72.4134 17.176 68.0872Z" fill="#6A4D67"/>
<path d="M13.7033 8.35614C15.4438 8.61754 16.4602 9.2984 17.086 10.6297C17.3642 11.2234 17.8305 11.7645 17.9634 12.3825C18.577 15.2356 20.6815 15.8273 23.1725 15.9489C23.7803 15.994 24.3834 16.0869 24.9764 16.2265C27.766 16.8081 28.7947 19.7706 26.9132 21.9287C26.0046 22.9502 25.0333 23.9152 24.0049 24.8183C23.1582 25.5802 22.8923 26.4212 23.1439 27.5215C23.4138 28.6968 23.5693 29.8984 23.7677 31.0879C23.9926 32.4354 23.649 33.6006 22.5303 34.4435C21.4116 35.2865 20.1968 35.4364 18.9369 34.867C17.5973 34.2591 16.2618 33.6249 14.9877 32.8954C14.1123 32.3949 13.3904 32.4901 12.5764 32.9724C11.5392 33.6075 10.4642 34.18 9.35729 34.6867C6.80899 35.7911 3.70849 34.8589 4.05412 31.2925C4.17548 29.8386 4.40033 28.3949 4.72699 26.9723C4.96218 26.0179 4.64314 25.4424 3.98254 24.871C3.10311 24.1091 2.2605 23.3087 1.39129 22.5346C0.131458 21.41 -0.259172 20.0118 0.164181 18.4211C0.573218 16.8871 1.80033 16.3339 3.23196 16.111C4.03367 15.9874 4.83743 15.7321 5.63505 15.7524C7.73136 15.8091 8.90735 14.7878 9.58021 12.9155C9.91767 11.9752 10.339 10.9783 11.0118 10.2629C11.7358 9.46861 12.7912 8.97621 13.7033 8.35614ZM5.5512 19.9692L5.08899 20.7433C6.14839 21.5964 7.33869 22.334 8.21812 23.3472C8.75396 23.9733 9.01574 25.027 8.99938 25.8801C8.97484 27.2986 8.62511 28.6988 8.41241 30.1071C8.47581 30.2611 8.53921 30.4131 8.60057 30.5671C12.1551 27.5397 15.683 27.4404 19.3194 30.788C19.0965 28.3381 18.3847 26.2976 18.9103 24.6359C19.436 22.9743 21.1825 21.6612 22.4281 20.1557C20.4995 19.6957 18.3602 19.7139 16.9817 18.7088C15.6033 17.7038 14.9366 15.6531 13.7872 13.8091C13.012 15.3106 12.466 16.6683 11.6438 17.8395C11.111 18.5231 10.3759 19.0247 9.54136 19.2742C8.25698 19.6572 6.88466 19.7544 5.5512 19.9692Z" fill="#6A4D67"/>
<path d="M67.1194 8.71465C68.6267 8.55254 69.6432 9.32256 70.3303 10.5384C70.9995 11.6671 71.5873 12.8412 72.0892 14.0521C72.533 15.1767 73.3552 15.5009 74.4289 15.6367C75.7869 15.8049 77.151 15.9771 78.4865 16.2689C79.0587 16.3954 79.5876 16.6675 80.0211 17.0586C80.4545 17.4496 80.7775 17.9459 80.958 18.4985C81.1386 19.0511 81.1704 19.6408 81.0505 20.2093C80.9305 20.7778 80.6629 21.3055 80.274 21.7401C79.2514 22.8668 78.0489 23.8273 77.0897 24.9944C76.6363 25.5997 76.4015 26.3383 76.423 27.0917C76.4761 28.3379 76.8074 29.572 77.0365 30.8101C77.3126 32.3319 76.9097 33.6166 75.6417 34.5569C74.4473 35.4424 73.1547 35.335 71.8888 34.7494C70.6814 34.2154 69.5055 33.614 68.367 32.9479C67.465 32.4028 66.7717 32.4778 65.8493 32.9662C64.2991 33.7889 62.6854 34.6237 60.9941 35.0229C58.4744 35.6187 56.8219 32.9844 57.2596 30.9702C57.5377 29.6936 57.8445 28.4068 57.9365 27.1201C57.9765 26.4064 57.7654 25.701 57.3393 25.1241C56.4108 23.9975 55.2635 23.0512 54.247 21.9934C52.3266 19.9893 53.1406 17.0086 55.8402 16.3196C57.1594 15.9812 58.5337 15.8333 59.8897 15.6549C60.9695 15.5131 61.7835 15.1382 62.2519 14.0521C62.7918 12.8059 63.479 11.6205 64.1375 10.4269C64.7674 9.25164 65.7225 8.6032 67.1194 8.71465ZM76.0712 20.1109C74.4023 19.813 73.1895 19.4767 71.9624 19.4057C70.4306 19.3186 69.5573 18.5749 68.9764 17.2477C68.504 16.1615 67.9129 15.1281 67.1685 13.6691C66.424 15.1017 65.8187 16.1251 65.3524 17.2092C64.7818 18.5405 63.9105 19.3024 62.395 19.422C61.1393 19.5212 59.8999 19.8272 58.6523 20.0481L58.3415 20.7148C59.3109 21.5152 60.268 22.3359 61.2559 23.116C62.3868 24.0117 62.62 25.1262 62.3071 26.4859C62.0269 27.7138 61.898 28.9722 61.6935 30.2184L61.9492 30.5811C65.4526 27.4889 68.9703 27.5416 72.5514 30.496C72.4838 29.0611 72.3033 27.6336 72.0115 26.2265C71.7456 25.0248 71.9747 24.0866 72.9195 23.2477C73.9135 22.3521 74.8175 21.3592 76.0712 20.1028V20.1109Z" fill="#6A4D67"/>
<path d="M46.2586 27.2236C45.2708 26.7555 43.5815 26.0888 42.0394 25.1769C40.9739 24.5467 40.119 24.5163 39.0903 25.1182C37.9973 25.7572 36.8717 26.3396 35.7178 26.8629C32.9956 28.0969 30.4412 26.3745 30.6518 23.4181C30.7541 21.9692 31.1734 20.5426 31.2654 19.0938C31.2867 18.3893 31.0661 17.6984 30.6396 17.1343C29.8386 16.155 28.9373 15.2607 27.9501 14.4656C26.6821 13.422 26.4469 12.0968 26.7435 10.6499C27.04 9.20312 28.1751 8.51011 29.5679 8.2487C30.5128 8.07038 31.4699 7.84343 32.4311 7.82925C34.2718 7.79885 35.4785 7.05113 36.0695 5.26995C36.3518 4.41888 36.8631 3.64886 37.2721 2.83832C37.9429 1.51308 38.941 0.757242 40.5239 0.779532C42.1069 0.801822 43.1009 1.47863 43.7553 2.83832C44.2359 3.83934 44.8577 4.78362 45.234 5.8191C45.7719 7.30037 46.8538 7.71577 48.2875 7.80088C49.3521 7.85328 50.4094 8.00526 51.4452 8.25478C54.605 9.04304 55.4497 12.0157 53.2082 14.3764C52.3022 15.3288 51.2489 16.1617 50.4492 17.191C50 17.8085 49.7699 18.556 49.7948 19.3167C49.8622 20.6136 50.2161 21.8922 50.4308 23.183C50.803 25.412 49.2998 27.1972 46.2586 27.2236ZM34.9651 22.6176C36.3334 21.9023 37.3887 21.4241 38.3663 20.8223C39.7979 19.9368 41.1436 19.8233 42.6121 20.7939C43.6081 21.4525 44.7452 21.9023 46.0889 22.5832C45.8516 21.1343 45.7269 19.9489 45.4508 18.7979C45.0418 17.0999 45.4078 15.7584 46.8661 14.6784C47.7148 14.0441 48.3959 13.189 49.4205 12.1657C47.8171 11.886 46.6411 11.5578 45.4508 11.5051C43.9435 11.426 42.9966 10.7817 42.4157 9.42197C41.929 8.29328 41.295 7.22742 40.5362 5.77452C39.7488 7.24363 39.0841 8.30139 38.6035 9.43615C38.0472 10.7432 37.1719 11.3977 35.7402 11.5172C34.5131 11.6206 33.3024 11.9225 31.6356 12.2123C32.9056 13.4869 33.826 14.4676 34.8097 15.3795C35.6707 16.1758 35.9959 17.0269 35.7014 18.2164C35.3762 19.5011 35.2494 20.8507 34.9651 22.6176Z" fill="#6A4D67"/>
</svg>
