<svg width="89" height="90" viewBox="0 0 89 90" fill="none" xmlns="http://www.w3.org/2000/svg">
<path d="M47.6643 83.7471C44.7736 83.7471 41.8787 83.8167 38.9901 83.7267C36.2715 83.6428 33.9178 82.5357 31.8525 80.8146C31.5684 80.5773 31.3257 80.2867 31.0458 80.0411C29.5735 78.7498 28.9576 78.9135 28.6113 80.7758C28.182 83.082 26.8922 84.6946 24.8289 85.7935C23.3213 86.5957 21.8842 87.533 20.3621 88.3045C16.9509 90.0357 13.5625 89.1455 11.6195 85.8958C8.00158 79.8426 4.44244 73.7552 0.942052 67.6338C-0.951225 64.3145 0.0814712 60.8807 3.39108 58.8957C4.94842 57.9625 6.55138 57.1071 8.11287 56.1821C10.1866 54.9543 12.3162 54.8949 14.3775 56.0266C15.4496 56.616 16.1774 56.4359 17.1251 55.8404C20.2896 53.8574 23.4644 51.8806 26.7346 50.0777C27.948 49.4249 29.2945 49.0494 30.6746 48.9788C34.0443 48.8253 37.4286 49.0115 40.8025 48.9031C44.1764 48.7946 46.7312 50.1309 48.668 52.7155C49.8272 54.2606 51.2808 54.9522 53.199 54.9236C55.6625 54.8868 58.1302 54.9686 60.5938 54.9236C62.9412 54.8847 64.9133 55.6316 66.4001 57.4366C67.0512 58.2265 67.5427 58.2551 68.3556 57.5675C71.6403 54.7763 74.981 52.0423 78.3093 49.3185C80.835 47.2516 84.1156 47.1309 86.4464 48.9829C89.0427 51.0436 89.8514 54.3711 87.9727 57.2156C84.379 62.6549 80.5592 67.9489 76.7644 73.2532C76.1442 74.0556 75.3609 74.7213 74.4647 75.2075C70.2509 77.6202 66.0248 80.0206 61.7322 82.2901C59.6834 83.3726 57.4273 83.7574 55.0467 83.6162C52.5893 83.4709 50.1175 83.5834 47.6519 83.5834L47.6643 83.7471ZM18.0832 60.2606C20.8972 65.0696 23.5618 69.6454 26.2722 74.1925C26.4692 74.522 27.0519 74.876 27.4002 74.8289C30.5004 74.4094 32.8146 75.7641 35.0853 77.6468C36.1574 78.5349 37.7003 79.2512 39.073 79.331C43.8218 79.6052 48.5954 79.7403 53.3462 79.5745C55.7903 79.4686 58.198 78.9509 60.4652 78.0438C63.0739 77.0042 65.4296 75.3548 67.9098 74.0001C70.7797 72.4305 73.5688 70.8077 75.4414 67.9898C78.1994 63.8398 81.0238 59.7285 83.8668 55.6337C84.6278 54.5348 84.9347 53.4932 83.8295 52.5375C82.7553 51.6084 81.7558 52.1569 80.8185 52.9222C77.7764 55.4209 74.7156 57.9011 71.6797 60.4059C69.8403 61.9223 68.0445 63.3773 67.0761 65.7511C66.66 66.7736 65.9446 67.6506 65.0213 68.2702C64.0979 68.8898 63.0085 69.224 61.8919 69.23C55.9466 69.3609 49.9993 69.3098 44.0582 69.2811C42.7766 69.2811 42.1255 68.5321 42.1919 67.2184C42.2561 65.749 43.0504 65.1269 45.1531 65.1167C50.1901 65.0922 55.2291 65.1167 60.2661 65.1003C62.4103 65.1003 63.696 63.9891 63.7292 62.1965C63.7624 60.3384 62.4311 59.1453 60.2392 59.1269C57.665 59.1037 55.0923 59.1037 52.5209 59.1269C49.512 59.1515 47.1729 57.9441 45.3439 55.5948C44.7404 54.8192 43.9586 53.7919 43.125 53.6466C38.482 52.8485 33.6151 52.2142 29.2044 53.8513C25.2975 55.2838 21.8925 57.9973 18.0832 60.2606ZM24.4535 80.0411C23.8045 78.8542 23.2529 77.7901 22.6536 76.7525C19.6288 71.5301 16.597 66.3152 13.5584 61.1078C12.59 59.4543 11.6817 59.2067 10.0041 60.1071C8.55249 60.8868 7.11542 61.7115 5.70324 62.5628C4.49843 63.2893 3.97793 64.249 4.824 65.5997C5.32998 66.4059 5.7613 67.2572 6.2424 68.0799C9.17667 73.1079 12.1026 78.14 15.0618 83.1537C16.0551 84.8399 16.8949 85.2001 18.2843 84.4756C19.9806 83.5875 21.6354 82.6073 23.2466 81.5718C23.7194 81.2689 23.9849 80.6489 24.4535 80.0411Z" fill="#6A4D67"/>
<path d="M48.1807 1.01126C50.0615 0.857782 51.3908 1.70499 52.2306 3.29914C53.6594 6.01471 54.9824 8.78963 56.4754 11.4704C56.8902 12.0957 57.5361 12.5363 58.2754 12.6982C61.1081 13.2242 63.9718 13.5884 66.8231 14.01C68.7703 14.2965 70.2178 15.1969 70.8793 17.1307C71.5408 19.0646 70.9415 20.7017 69.5812 22.0585C67.6215 24.0067 65.5955 25.8893 63.5384 27.7352C62.5907 28.5865 62.3564 29.5053 62.5949 30.7107C63.1188 33.3478 63.5903 35.9958 64.0092 38.6548C64.2932 40.4679 63.9967 42.2012 62.3896 43.3615C60.6767 44.5893 58.7793 44.5893 56.9234 43.6603C54.4349 42.4188 51.9742 41.1357 49.541 39.811C48.6079 39.3014 47.851 39.2319 46.868 39.7783C44.3547 41.178 41.773 42.4611 39.2058 43.7646C37.4286 44.6651 35.583 44.6282 34.0589 43.4106C32.5783 42.2278 31.9956 40.5825 32.3999 38.5893C32.9723 35.8 33.4181 32.9822 33.7686 30.1602C33.8035 29.4101 33.5409 28.676 33.0365 28.1138C31.0541 26.0415 28.9998 24.0353 26.8735 22.0953C25.2664 20.628 25.142 18.8415 25.6293 16.9998C26.1104 15.1887 27.535 14.2924 29.4055 14.0325C32.3087 13.6232 35.2305 13.2528 38.115 12.7085C38.8927 12.5177 39.5632 12.0325 39.9813 11.3579C41.3665 8.85716 42.5548 6.25414 43.8757 3.71865C44.7757 2.00172 46.0469 0.8189 48.1807 1.01126ZM36.7754 40.1712C40.0933 38.4399 42.9819 36.989 45.8105 35.4153C47.2973 34.5968 48.6639 34.4146 50.1942 35.2578C52.7158 36.6473 55.2768 37.9672 57.8316 39.2973C58.3583 39.5716 58.9307 39.7619 59.8079 40.1282C59.1857 36.4262 58.6487 33.109 58.0473 29.8021C57.7653 28.2386 57.9706 26.9678 59.2708 25.8198C61.4233 23.9228 63.4389 21.8702 65.4918 19.8606C65.8755 19.4841 66.1471 18.9971 66.5764 18.4282C66.0455 18.3074 65.7967 18.2358 65.5395 18.1969C62.1636 17.673 58.771 17.2351 55.422 16.5782C54.6257 16.4227 53.705 15.6921 53.3027 14.9738C51.7537 12.201 50.3995 9.32578 48.948 6.49561C48.7406 6.1068 48.471 5.75891 48.0376 5.10201C46.7934 7.6375 45.5305 9.78622 44.6782 12.0843C43.3531 15.6614 40.9663 17.2658 37.1072 17.3129C34.7079 17.3415 32.319 17.9821 29.5631 18.4036C30.2329 19.1301 30.6 19.5619 31.0043 19.9609C33.1568 22.0953 35.386 24.1622 37.4328 26.3907C38.0217 27.0333 38.4551 28.169 38.3576 29.0121C38.0113 31.9917 37.3934 34.9467 36.906 37.9078C36.8231 38.4952 36.8438 39.1111 36.7837 40.1712H36.7754Z" fill="#6A4D67"/>
<path d="M17.9962 2.20631C18.2035 2.325 18.7302 2.49689 19.0952 2.83455C20.3063 3.95188 21.4758 5.11424 22.6205 6.28887C23.5163 7.19952 23.4313 8.25342 22.7117 9.15383C21.9922 10.0542 20.8454 10.2487 19.989 9.53242C18.4918 8.27797 17.0153 6.9294 15.8416 5.38846C14.7674 3.97644 15.9245 2.17152 17.9962 2.20631Z" fill="#6A4D67"/>
<path d="M83.8254 20.055C84.6797 20.055 85.5341 20.0448 86.3864 20.055C87.782 20.0775 88.4601 20.9145 88.4601 22.1649C88.4601 23.3538 87.7903 24.1683 86.4839 24.1908C84.7226 24.2236 82.962 24.2236 81.2022 24.1908C79.8999 24.1683 79.2342 23.3723 79.2177 22.1751C79.199 20.8879 79.8875 20.0939 81.2685 20.0591C82.1187 20.0387 82.9731 20.0571 83.8254 20.055Z" fill="#6A4D67"/>
<path d="M12.4759 24.1868C11.5676 24.1868 10.6552 24.2379 9.75106 24.1704C8.50684 24.0803 7.94695 23.1963 7.93451 22.124C7.92206 21.0517 8.55661 20.1533 9.7635 20.0981C11.6298 20.0121 13.5065 20.0203 15.3749 20.0981C16.6087 20.1451 17.1334 20.9575 17.1251 22.1301C17.1168 23.3027 16.5735 24.0722 15.3604 24.1765C14.4065 24.2543 13.4381 24.1868 12.4759 24.1868Z" fill="#6A4D67"/>
<path d="M12.2831 65.1311C12.252 66.3589 11.3852 67.0997 10.0498 67.0486C8.71432 66.9974 8.03622 66.2546 8.09014 64.8917C8.14198 63.6249 8.82837 62.9496 10.1037 62.923C11.4101 62.8964 12.3142 63.8419 12.2831 65.1311Z" fill="#6A4D67"/>
<path d="M15.2899 39.3383C15.4102 39.1336 15.5844 38.6138 15.9266 38.2537C17.0588 37.0606 18.2367 35.9064 19.427 34.7748C20.3518 33.8907 21.4177 33.9746 22.3405 34.6847C23.2633 35.3948 23.4499 36.5265 22.7241 37.3737C21.4529 38.8512 20.0864 40.3083 18.5249 41.4665C17.0878 42.5204 15.2588 41.3826 15.2899 39.3383Z" fill="#6A4D67"/>
<path d="M78.6765 2.20631C78.4692 2.325 77.9424 2.49689 77.5795 2.83455C76.3685 3.95188 75.199 5.11424 74.0543 6.28887C73.1584 7.19952 73.2414 8.25342 73.963 9.15383C74.6847 10.0542 75.8294 10.2487 76.6858 9.53242C78.183 8.27797 79.6595 6.9294 80.8332 5.38846C81.9073 3.97644 80.7502 2.17152 78.6765 2.20631Z" fill="#6A4D67"/>
<path d="M81.3848 39.3383C81.2645 39.1336 81.0903 38.6138 80.7481 38.2537C79.6138 37.0606 78.438 35.9064 77.2477 34.7748C76.3229 33.8907 75.257 33.9746 74.3321 34.6847C73.4073 35.3948 73.2248 36.5265 73.9506 37.3737C75.2217 38.8512 76.5883 40.3083 78.1498 41.4665C79.5869 42.5204 81.4138 41.3826 81.3848 39.3383Z" fill="#6A4D67"/>
</svg>
