<svg width="18" height="18" viewBox="0 0 18 18" fill="none" xmlns="http://www.w3.org/2000/svg">
<path d="M16.5 12.6899V14.9399C16.5008 15.1488 16.458 15.3556 16.3743 15.547C16.2907 15.7383 16.1679 15.9101 16.014 16.0513C15.8601 16.1926 15.6784 16.3001 15.4805 16.367C15.2826 16.4339 15.073 16.4587 14.865 16.4399C12.5571 16.1892 10.3402 15.4006 8.39245 14.1374C6.58032 12.9859 5.04395 11.4496 3.89245 9.63745C2.62493 7.68085 1.83613 5.4532 1.58995 3.13495C1.57121 2.92755 1.59586 2.71852 1.66233 2.52117C1.72879 2.32382 1.83563 2.14247 1.97602 1.98867C2.11642 1.83487 2.2873 1.71198 2.47779 1.62784C2.66828 1.5437 2.87421 1.50015 3.08245 1.49995H5.33245C5.69643 1.49637 6.04929 1.62526 6.32527 1.8626C6.60125 2.09994 6.78151 2.42954 6.83245 2.78995C6.92742 3.51 7.10354 4.217 7.35745 4.89745C7.45836 5.16589 7.4802 5.45764 7.42038 5.73811C7.36056 6.01858 7.2216 6.27603 7.01995 6.47995L6.06745 7.43245C7.13512 9.31011 8.68979 10.8648 10.5675 11.9324L11.5199 10.9799C11.7239 10.7783 11.9813 10.6393 12.2618 10.5795C12.5423 10.5197 12.834 10.5415 13.1024 10.6424C13.7829 10.8964 14.4899 11.0725 15.21 11.1674C15.5743 11.2188 15.907 11.4024 16.1448 11.6831C16.3827 11.9638 16.5091 12.3221 16.5 12.6899Z" stroke="#436B67" stroke-width="1.5" stroke-linecap="round" stroke-linejoin="round"/>
</svg>
