<svg width="80" height="89" viewBox="0 0 80 89" fill="none" xmlns="http://www.w3.org/2000/svg">
<path d="M52.2363 33.9336C53.2816 34.4668 53.9224 34.8159 54.5806 35.1285C59.1996 37.3247 63.8825 39.4058 68.4163 41.763C70.176 42.6799 71.6569 44.1606 73.1707 45.4879C74.8085 46.9226 76.392 48.4283 77.9039 49.9934C80.2773 52.4543 79.6714 55.3966 76.574 56.8466C75.2189 57.4776 73.8986 58.1681 72.5319 58.7647C71.624 59.1579 71.3026 59.7544 71.3162 60.7211C71.3626 63.7899 71.2755 66.8454 71.3472 69.9047C71.4265 73.2018 69.9921 75.3232 66.9431 76.7368C59.3196 80.2699 51.791 83.9966 44.2102 87.6198C41.2076 89.0545 38.1374 89.1006 35.1329 87.6659C27.3739 83.9602 19.6459 80.1739 11.8889 76.4836C9.17871 75.1966 7.9959 73.2133 8.12366 70.2346C8.25724 67.1312 8.12366 64.0163 8.15077 60.9052C8.16238 59.8829 7.7965 59.2691 6.84212 58.8452C5.25277 58.1375 3.70408 57.3395 2.15732 56.5436C1.60078 56.2647 1.11918 55.8586 0.752293 55.3589C0.385406 54.8592 0.143758 54.2802 0.0473049 53.6697C-0.049148 53.0592 0.00236083 52.4348 0.197579 51.8479C0.392796 51.261 0.726123 50.7286 1.17003 50.2945C3.50662 47.9296 5.76965 45.4764 8.29402 43.3263C9.69172 42.1371 11.5289 41.4312 13.2189 40.6103C17.2416 38.6539 21.2934 36.7608 25.3316 34.837C25.5656 34.6919 25.7888 34.5304 25.9995 34.3536C24.5166 32.8863 23.0763 31.4765 21.6631 30.0572C20.521 28.9063 20.1144 27.5177 20.6236 25.9756C21.1327 24.4334 22.1935 23.507 23.8545 23.2903C24.9367 23.1464 26.0169 22.7801 27.0913 22.8031C30.5971 22.8779 32.8989 21.4605 33.9152 18.0291C34.2172 17.0048 34.9141 16.0995 35.3536 15.1079C36.0544 13.5255 37.303 12.7161 38.9775 12.718C40.652 12.7199 41.8949 13.4852 42.6324 15.0657C43.5539 17.0336 44.516 18.9919 45.6021 20.8735C45.9944 21.5119 46.6174 21.9783 47.3443 22.1778C49.6248 22.6535 51.9653 22.8491 54.2515 23.3095C57.589 23.9789 58.704 27.5522 56.381 30.0226C55.1459 31.2924 53.7947 32.4605 52.2363 33.9336ZM53.2429 27.5253C52.5789 27.2031 52.3699 27.0362 52.1414 27.0017C49.9326 26.6661 47.7257 26.2863 45.5033 26.06C44.1114 25.918 43.2151 25.3369 42.6305 24.0767C41.8194 22.3293 40.9153 20.6242 40.0248 18.9133C39.7693 18.4204 39.4286 17.9696 38.9698 17.2542C38.5381 17.9677 38.2419 18.405 38.0018 18.8615C37.0513 20.7086 36.215 22.6209 35.131 24.3855C34.6973 25.0913 33.7952 25.6457 32.9841 25.9545C32.1304 26.2805 31.1256 26.2038 30.1926 26.3496C28.5122 26.6104 26.8358 26.9058 24.8089 27.2453C25.3742 27.9128 25.6529 28.2983 25.9878 28.6244C27.4107 30.0035 28.791 31.4305 30.301 32.7098C31.4935 33.7226 31.6774 34.8753 31.4083 36.2928C30.9437 38.744 30.5565 41.2087 30.1093 43.8326C30.3983 43.7589 30.6822 43.6666 30.9592 43.5564C33.2164 42.4056 35.4329 41.1723 37.7444 40.1442C38.5425 39.8336 39.429 39.8294 40.23 40.1327C42.1001 40.9268 43.8598 41.974 45.6718 42.9004C46.3416 43.2438 47.0385 43.5353 47.958 43.9573C47.5708 41.7381 47.445 39.797 46.8836 37.9864C46.0396 35.2647 46.6648 33.2565 48.953 31.5341C50.434 30.4197 51.6807 29.0042 53.2429 27.5253ZM51.0612 37.9001C51.3748 40.0579 51.7581 41.7976 51.8549 43.5507C52.062 47.2295 49.2163 49.0631 45.8344 47.4846C44.307 46.7711 42.766 46.0441 41.3586 45.1311C39.7422 44.0858 38.3271 44.0494 36.6893 45.1024C35.1324 46.0761 33.5013 46.9284 31.8109 47.6515C28.7697 48.9941 26.1001 47.2391 26.1079 43.9592C26.1347 43.2713 26.2059 42.5858 26.3208 41.9069C26.4466 40.9651 26.5938 40.0253 26.8048 38.5944L15.3832 44.0916C15.4103 44.2527 15.4354 44.4157 15.4625 44.5787C15.9117 44.8454 16.3434 45.1542 16.8176 45.3767C24.0229 48.856 31.2205 52.3507 38.4606 55.7552C39.1053 56.0583 40.1507 56.0276 40.8069 55.7226C48.2387 52.2701 55.6318 48.7237 63.0307 45.1964C63.4469 45.0046 63.8263 44.7207 64.4787 44.3236L51.0612 37.9001ZM67.2373 61.4403C66.9785 61.4972 66.7237 61.5709 66.4746 61.6609C61.5962 64.0112 56.7197 66.3653 51.8452 68.7232C49.6674 69.7743 48.0045 69.5652 46.2312 67.9694C45.4936 67.3096 44.8122 66.5846 44.1018 65.896C43.4591 65.2745 42.8105 64.6588 42.1659 64.0412L41.8426 64.279V84.2862L46.6823 81.952C53.0377 78.8831 59.4087 75.8583 65.7312 72.73C66.3817 72.4097 67.1463 71.5466 67.1792 70.9002C67.3148 67.8198 67.2373 64.726 67.2373 61.4403ZM12.1038 61.4749C12.1038 64.3769 12.1967 66.9873 12.0709 69.5863C11.9857 71.3701 12.6652 72.4078 14.2739 73.1673C21.243 76.4568 28.1502 79.8306 35.0922 83.1565C35.7795 83.4864 36.5267 83.6974 37.4888 84.0542C38.1664 77.1607 37.5508 70.5396 37.3514 63.8206C35.9614 64.9369 34.8232 66.1683 33.6403 67.3575C31.2689 69.7378 29.9119 69.9488 26.8764 68.4777C22.4058 66.3115 17.9359 64.1467 13.4667 61.9831C13.1201 61.8239 12.7485 61.7204 12.098 61.4806L12.1038 61.4749ZM36.1937 59.2001C34.4515 58.3772 33.0712 57.7289 31.6948 57.0672C24.9696 53.8372 18.2521 50.5957 11.5153 47.3944C11.0875 47.1911 10.2938 47.0396 10.0499 47.2659C8.11399 49.0708 6.25555 50.9716 4.24225 52.9664C4.93142 53.35 5.34182 53.6224 5.77933 53.8333C10.2538 56.0071 14.7308 58.1675 19.2104 60.3144C22.3929 61.8489 25.5774 63.3641 28.791 64.8219C29.244 65.0271 30.0841 65.0827 30.3823 64.8123C32.2891 63.0937 34.0933 61.2581 36.1879 59.2058L36.1937 59.2001ZM75.155 52.9798C73.1688 51.0618 71.4227 49.4448 69.781 47.7378C69.057 46.9821 68.4763 46.9706 67.5761 47.404C59.8016 51.1922 52.004 54.9324 44.216 58.6937C43.9153 58.8658 43.6269 59.0581 43.3526 59.2691C45.1336 61.0644 46.8488 62.7695 48.533 64.5015C49.288 65.2784 49.981 65.1805 50.9121 64.724C56.3113 62.081 61.753 59.5165 67.1734 56.908C69.7094 55.6862 72.2299 54.4203 75.155 52.9798Z" fill="#6A4D67"/>
<path d="M52.6004 14.4749C52.2132 14.1699 51.4698 13.8515 51.2627 13.3241C51.0304 12.7486 51.0323 11.7513 51.3943 11.3101C52.4727 9.96379 53.7 8.7414 55.0531 7.6658C55.5719 7.26109 56.8728 7.14985 57.3084 7.51044C57.8388 7.94968 58.286 9.39589 57.9821 9.76223C56.627 11.3945 55.0008 12.7985 53.4541 14.2677C53.3321 14.3867 53.0785 14.3675 52.6004 14.4749Z" fill="#6A4D67"/>
<path d="M22.5187 7.20359C23.9919 7.17482 27.7862 10.9937 27.7455 12.4648C27.7049 13.9877 26.1465 14.9986 24.9443 14.0875C23.4445 12.9487 22.0944 11.6284 20.9255 10.1574C19.9401 8.91641 20.9564 7.23428 22.5187 7.20359Z" fill="#6A4D67"/>
<path d="M41.3838 4.51831C41.3838 5.35458 41.4515 6.19852 41.3683 7.0252C41.2521 8.17604 40.5301 8.83201 39.3724 8.78214C38.2612 8.73419 37.5024 8.16645 37.4946 6.93314C37.4849 5.35842 37.4501 3.7837 37.4675 2.2109C37.4811 0.985261 38.1218 0.248729 39.386 0.239139C40.6501 0.229549 41.3044 0.9469 41.3857 2.15719C41.438 2.94167 41.3954 3.73191 41.3954 4.51831H41.3838Z" fill="#6A4D67"/>
</svg>
