<svg width="18" height="16" viewBox="0 0 18 16" fill="none" xmlns="http://www.w3.org/2000/svg">
<path d="M16.056 1.00103C15.8788 1.00851 15.7063 1.05597 15.5507 1.11591C15.3967 1.17545 14.5102 1.53949 13.2011 2.07801C11.8919 2.61652 10.1902 3.31778 8.50326 4.01314C5.12941 5.40387 1.81403 6.77225 1.81403 6.77225L1.83819 6.76336C1.83819 6.76336 1.63809 6.82771 1.43522 6.96371C1.33378 7.03171 1.22465 7.1195 1.1353 7.24749C1.04594 7.37547 0.980619 7.55686 1.00524 7.74871C1.0917 8.42257 1.81758 8.61371 1.81758 8.61371L1.82042 8.61507L5.05985 9.68179C5.14245 9.94689 6.04239 12.8368 6.24035 13.4488C6.34968 13.7872 6.45201 13.9824 6.55875 14.1155C6.61216 14.1821 6.66814 14.2337 6.73003 14.2714C6.75462 14.2864 6.78048 14.2976 6.80608 14.3077C6.80662 14.3079 6.80695 14.3074 6.8075 14.3077C6.81064 14.309 6.8136 14.3091 6.81674 14.3104L6.80821 14.3083C6.81415 14.3107 6.82002 14.3145 6.82598 14.3165C6.83752 14.3204 6.8446 14.3203 6.85938 14.3234C7.23038 14.448 7.5374 14.2167 7.5374 14.2167L7.55019 14.2071L9.54019 12.4313L12.7697 14.854L12.8102 14.8718C13.3755 15.1133 13.8867 14.9785 14.1698 14.7569C14.4529 14.5353 14.5642 14.2495 14.5642 14.2495L14.5763 14.2194L16.9494 2.31938C17.0101 2.05315 17.0187 1.82303 16.9615 1.61508C16.9042 1.40713 16.765 1.22636 16.5905 1.12616C16.4159 1.02597 16.2332 0.993549 16.056 1.00103ZM16.0752 1.71286C16.1472 1.70965 16.2005 1.71757 16.2173 1.72722C16.2342 1.73687 16.2417 1.7356 16.2578 1.79423C16.274 1.85286 16.2827 1.97636 16.2387 2.16963L16.2372 2.17374L13.8777 14.0047C13.8721 14.0166 13.8229 14.1261 13.7107 14.214C13.5961 14.3036 13.4688 14.3736 13.1307 14.2372L9.59918 11.5875L9.49968 11.5123L9.49755 11.5144L8.44143 10.7519L14.3766 4.03366C14.4222 3.98217 14.4513 3.91907 14.4604 3.85199C14.4696 3.78491 14.4583 3.71673 14.428 3.65568C14.3977 3.59464 14.3497 3.54334 14.2897 3.508C14.2298 3.47266 14.1605 3.45478 14.0902 3.45653C14.0215 3.45825 13.9547 3.47864 13.8976 3.51534L5.30931 9.02398L2.06491 7.95521C2.06491 7.95521 1.74274 7.78272 1.72732 7.66255C1.72647 7.65589 1.72266 7.66192 1.7394 7.63793C1.75614 7.61395 1.79823 7.57347 1.85098 7.5381C1.9565 7.46736 2.07699 7.42459 2.07699 7.42459L2.08907 7.42049L2.10116 7.4157C2.10116 7.4157 5.41671 6.04725 8.79039 4.65659C10.4772 3.96126 12.1787 3.26052 13.4875 2.72214C14.796 2.1839 15.7414 1.79648 15.8215 1.76551C15.9126 1.7304 16.0032 1.71607 16.0752 1.71286ZM12.1393 5.48467L7.63832 10.5796L7.63619 10.5817C7.62916 10.5898 7.62252 10.5982 7.61629 10.607C7.60915 10.6164 7.60251 10.6263 7.59639 10.6364C7.5711 10.6777 7.55489 10.7235 7.54877 10.7711C7.54877 10.772 7.54877 10.7729 7.54877 10.7738L6.96243 13.3107C6.95269 13.2833 6.94586 13.2733 6.93543 13.2409V13.2403C6.74919 12.6645 5.90012 9.93907 5.78265 9.56213L12.1393 5.48467ZM8.14648 11.4145L8.95527 11.9985L7.76696 13.0584L8.14648 11.4145Z" fill="#436B67" stroke="#436B67" stroke-width="0.5"/>
</svg>
